<svg width="129" height="36" viewBox="0 0 129 36" fill="none" xmlns="http://www.w3.org/2000/svg">
<path d="M25.2516 3.95887C24.9784 2.96022 24.7412 2.13336 24.0017 1.3808C22.8095 0.16723 20.9172 -0.236826 19.3924 0.130901C17.3135 0.631985 16.2176 2.49594 15.1737 4.27129C13.1684 7.68185 13.2462 10.3258 12.3613 10.3649C11.5053 10.4029 11.3931 7.93145 8.76766 5.44314C7.71089 4.44168 6.85263 4.01161 6.03327 3.80255C5.5664 3.68349 4.45267 3.41537 3.22082 3.88083C1.86382 4.39339 1.18133 5.48697 0.87712 5.99016C-0.466057 8.21199 0.0636184 10.7397 0.330332 11.9275C0.865165 14.3105 1.99014 15.8405 3.92393 18.4118C6.07897 21.277 6.45865 20.9791 8.53329 23.8804C9.39015 25.0785 10.6119 26.9283 11.7362 29.2709C12.519 30.9012 12.9104 31.7165 13.2207 32.9427C13.568 34.3148 13.5676 35.1765 13.8458 35.2082C14.1793 35.2461 14.5051 34.0424 15.4864 31.3022C16.0095 29.8402 16.4133 28.7121 16.8143 27.7866C17.7201 25.6948 18.4132 25.0937 19.705 23.0209C20.7845 21.2882 21.5706 19.4702 23.1423 15.8337C24.388 12.9517 25.0173 11.4784 25.3299 9.89618C25.8144 7.44349 25.6908 5.56337 25.2516 3.95887Z" fill="#92CAEE"/>
<path d="M38.1873 30.4722C37.7406 30.4722 37.4614 30.2489 37.3497 29.8021L36.9475 28.3277C36.3221 26.2501 35.8641 24.4964 35.5736 23.0666C35.3949 22.2847 35.1715 21.2012 34.9033 19.8161C34.5907 18.2077 34.3003 16.9008 34.0322 15.8955L33.697 16.0966L33.2613 16.2977L33.3284 29.1989V29.7016C33.3284 30.1485 33.1274 30.3719 32.7253 30.3719C32.5466 30.3719 32.4014 30.316 32.2896 30.2043C32.1779 30.0926 32.1221 29.9585 32.1221 29.8021V29.2994L32.1891 22.5306L32.2561 19.2801C32.3455 15.3706 32.3902 12.042 32.3902 9.29404V4.97131C32.3902 4.77022 32.5912 4.66968 32.9932 4.66968C33.5742 4.66968 34.1159 4.82608 34.6186 5.13888C35.1212 5.45169 35.5178 5.87614 35.8082 6.41222C36.4114 7.50689 36.7129 8.70209 36.7129 9.99785C36.7129 11.0255 36.4896 12.1425 36.0429 13.3489C35.9088 13.6839 35.7412 14.0692 35.5401 14.5048C35.339 14.9404 35.1603 15.2364 35.0039 15.3928C35.4731 17.1131 36.1545 19.7604 37.0481 23.3347L38.623 29.3665C38.6454 29.4335 38.6566 29.5564 38.6566 29.7351C38.6566 29.9362 38.6174 30.1093 38.5391 30.2545C38.461 30.3996 38.3437 30.4722 38.1873 30.4722ZM33.2278 15.1917C33.4066 15.1917 33.7082 14.9795 34.1327 14.5552C34.5571 14.1307 34.8587 13.7732 35.0374 13.4829C35.1938 13.1701 35.3279 12.7009 35.4396 12.0753C35.5513 11.4499 35.6072 10.8914 35.6072 10.4C35.6072 9.48395 35.4508 8.54562 35.138 7.58501C34.9815 7.02658 34.747 6.57425 34.4344 6.228C34.1216 5.88176 33.7752 5.70864 33.3954 5.70864H33.3284C33.306 5.73098 33.2725 5.74215 33.2278 5.74215V15.1917Z" fill="#272320"/>
<path d="M43.3139 30.3384C42.7777 30.3384 42.4035 30.2881 42.1913 30.1875C41.9791 30.087 41.873 29.8915 41.873 29.6011V28.9643C41.8507 28.7857 41.8395 28.5847 41.8395 28.3613V28.2942L41.873 23.4017L41.8395 9.56218C41.8395 8.13252 41.8171 6.89269 41.7725 5.84272C41.7725 5.5746 41.8283 5.35117 41.94 5.17242C42.0518 4.99367 42.1969 4.9043 42.3755 4.9043H44.4532C44.766 4.9043 45.0006 4.92664 45.157 4.97133C45.3803 5.03836 45.4919 5.22828 45.4919 5.54108C45.4919 5.71983 45.4249 5.86498 45.2908 5.97654C45.1569 6.08826 45.0118 6.15529 44.8554 6.17763H44.2856L43.7494 6.14412L43.2134 6.1106C43.057 6.1106 42.9509 6.13857 42.8951 6.19451C42.8392 6.25029 42.8112 6.35638 42.8112 6.51278C42.8112 7.56276 42.8224 8.5122 42.8447 9.36109V12.2094V16.3983C42.8447 16.443 42.867 16.4653 42.9117 16.4653H42.9452H42.9788C43.5372 16.4206 44.1404 16.3983 44.7883 16.3983C45.1457 16.3983 45.3243 16.5546 45.3243 16.8673C45.3243 17.0907 45.2853 17.2416 45.2072 17.3198C45.129 17.398 45.0006 17.437 44.8219 17.437H42.9117C42.8224 17.437 42.7777 17.4929 42.7777 17.6046L42.8447 22.5641C42.8894 24.1055 42.9117 25.8815 42.9117 27.892V29.1319H44.3526H45.76H46.0617C46.4639 29.1319 46.6649 29.2771 46.6649 29.5676C46.6649 29.925 46.5644 30.1373 46.3633 30.2043C46.0952 30.2937 45.5479 30.3384 44.7213 30.3384H43.3139Z" fill="#272320"/>
<path d="M54.8088 30.6733C53.1334 30.6733 51.8935 29.467 51.0893 27.0544C50.285 24.6416 49.8828 20.8885 49.8828 15.795C49.8828 14.7003 49.9052 13.7285 49.9498 12.8797C49.9945 11.852 50.1509 10.7462 50.4191 9.56215C50.5308 8.95903 50.6704 8.43404 50.8379 7.98718C51.0055 7.54047 51.2345 7.07133 51.5248 6.57978C52.0387 5.68621 52.7536 5.06067 53.6695 4.70317C54.1609 4.52443 54.6747 4.43506 55.211 4.43506C55.8811 4.43506 56.2162 4.62498 56.2162 5.00481C56.2162 5.27293 56.0487 5.40699 55.7137 5.40699C55.6243 5.40699 55.4679 5.37347 55.2445 5.30644L54.7753 5.23942C54.0381 5.23942 53.4015 5.54097 52.8654 6.14409C52.4856 6.59095 52.1169 7.36172 51.7594 8.45638C51.5136 9.34996 51.3461 10.3441 51.2569 11.4387C51.1899 12.0419 51.1229 13.0248 51.0558 14.3876L51.0223 16.5993V18.4422C51.0223 20.6092 51.1786 22.5863 51.4913 24.3734C51.7147 25.4904 51.9772 26.4176 52.2788 27.1549C52.5805 27.8921 52.9882 28.4952 53.502 28.9643C54.0605 29.4782 54.6637 29.7351 55.3115 29.7351C56.4956 29.7351 57.445 29.1766 58.1598 28.0596C58.1598 27.4565 58.1151 26.6634 58.0258 25.6805C57.9587 25.1889 57.8694 24.7309 57.7577 24.3064C57.6236 23.9267 57.4673 23.7369 57.2887 23.7369L56.6519 23.8039L55.9481 23.8709C55.4343 23.8709 55.1775 23.681 55.1775 23.3012C55.1775 23.1224 55.4902 22.9548 56.1157 22.7984C56.7413 22.6422 57.2663 22.5641 57.6906 22.5641C58.0481 22.5641 58.3106 22.6925 58.4781 22.9494C58.6458 23.2062 58.7296 23.5469 58.7296 23.9715C58.7296 24.4629 58.8412 25.457 59.0645 26.9538C59.2879 28.2049 59.3997 29.199 59.3997 29.9362C59.3997 30.2935 59.2545 30.4722 58.9642 30.4722C58.428 30.4722 58.1598 30.2265 58.1598 29.7351L58.1933 29.6346V29.5675C56.9199 30.3047 55.7918 30.6733 54.8088 30.6733Z" fill="#272320"/>
<path d="M69.5195 30.1373C69.3407 30.1373 69.1898 30.0814 69.0669 29.9697C68.9441 29.858 68.8827 29.7239 68.8827 29.5675V25.1778C68.8827 24.9097 68.313 24.6639 67.1736 24.4405C66.0343 24.2172 65.096 24.1055 64.3589 24.1055C64.3142 24.1055 64.2416 24.273 64.1411 24.608C64.0405 24.9432 63.9678 25.1889 63.9232 25.3454C63.6329 26.507 63.3425 27.7469 63.052 29.0648L62.8844 29.8021C62.8397 29.9809 62.728 30.0703 62.5493 30.0703C62.3705 30.0703 62.2086 30.0144 62.0634 29.9027C61.9183 29.791 61.8457 29.6569 61.8457 29.5005L61.8792 29.4335V29.4L62.2476 27.7244C62.5158 26.6745 62.7504 25.6468 62.9515 24.6415C63.1749 23.5022 63.3425 22.765 63.4542 22.43C63.6328 21.6927 63.9902 19.8496 64.5264 16.9008L64.7275 15.795C65.3083 12.3546 65.7104 10.1876 65.9338 9.29403C66.0455 8.75795 66.2466 7.96492 66.5371 6.91494C66.6487 6.46807 66.805 6.02129 67.0061 5.57458C67.2072 5.19474 67.3747 5.00482 67.5088 5.00482C67.8663 5.00482 68.1232 5.11654 68.2794 5.33997C68.3911 5.54106 68.5643 6.6469 68.799 8.65748C69.0335 10.6681 69.2402 12.701 69.4189 14.7563L69.8544 20.3188C69.8544 21.2794 69.9214 22.7315 70.0555 24.6751C70.1895 26.6409 70.2565 28.1042 70.2565 29.0648V29.1989C70.2565 29.4446 70.223 29.6681 70.156 29.8692C70.0666 30.0479 69.8544 30.1373 69.5195 30.1373ZM68.1789 23.6698C68.6257 23.6698 68.8492 23.5581 68.8492 23.3347C68.8492 21.9496 68.771 20.0562 68.6145 17.6547C68.4581 15.2532 68.2907 13.1365 68.1121 11.3047C68.0674 10.5228 67.978 9.66278 67.8439 8.72451L67.7099 7.41766C67.7099 7.44 67.6875 7.31712 67.6428 7.049L67.5758 6.64682C67.3971 7.13837 67.224 7.81977 67.0565 8.691C66.8888 9.56223 66.7157 10.5899 66.5371 11.7739C66.0009 15.1024 65.5428 17.6045 65.163 19.2801L64.8616 20.4194C64.5264 21.5364 64.3589 22.3853 64.3589 22.966V23.1671C65.3418 23.4799 66.47 23.6363 67.7434 23.6363H67.9445C68.0115 23.6587 68.0896 23.6698 68.1789 23.6698Z" fill="#272320"/>
<path d="M76.0198 30.3384C75.8634 30.3384 75.7349 30.2714 75.6345 30.1373C75.534 30.0032 75.4838 29.8357 75.4838 29.6346V29.0983V28.2942C75.4838 26.8867 75.4279 25.3006 75.3162 23.5358C75.2268 21.6593 75.1821 20.0731 75.1821 18.7774C75.1821 17.571 75.1263 15.2365 75.0146 11.7739C74.8805 8.64632 74.8135 6.31176 74.8135 4.77023C74.8135 4.65851 74.8638 4.56359 74.9644 4.48547C75.0649 4.40735 75.1821 4.36829 75.3162 4.36829C75.7182 4.36829 75.9192 4.53578 75.9192 4.87077C75.9192 9.00366 75.9527 12.0977 76.0198 14.153L76.1874 20.1513C76.1874 21.0895 76.2544 22.6198 76.3884 24.7421L76.5895 28.8973C76.5895 28.9643 76.623 28.9978 76.6901 28.9978C76.7124 29.0201 76.8577 29.0313 77.1258 29.0313H79.2032C79.4937 29.0313 79.6389 29.2324 79.6389 29.6346C79.6389 29.8133 79.6054 29.9641 79.5384 30.0869C79.4713 30.2099 79.3708 30.2714 79.2367 30.2714L79.0021 30.3049H78.7343C78.265 30.3272 77.3602 30.3384 76.0198 30.3384Z" fill="#272320"/>
<path d="M89.6249 30.1373C89.4463 30.1373 89.2956 30.0814 89.1726 29.9697C89.0498 29.858 88.9884 29.7239 88.9884 29.5675V25.1778C88.9884 24.9097 88.4187 24.6639 87.2793 24.4405C86.14 24.2172 85.2017 24.1055 84.4646 24.1055C84.4199 24.1055 84.3472 24.273 84.2466 24.608C84.1461 24.9432 84.0736 25.1889 84.0289 25.3454C83.7384 26.507 83.448 27.7469 83.1577 29.0648L82.9901 29.8021C82.9455 29.9809 82.8337 30.0703 82.655 30.0703C82.4762 30.0703 82.3143 30.0144 82.1691 29.9027C82.0238 29.791 81.9512 29.6569 81.9512 29.5005L81.9847 29.4335V29.4L82.3534 27.7244C82.6215 26.6745 82.8561 25.6468 83.0572 24.6415C83.2806 23.5022 83.4481 22.765 83.5597 22.43C83.7384 21.6927 84.0959 19.8496 84.6321 16.9008L84.8332 15.795C85.414 12.3546 85.8161 10.1876 86.0395 9.29403C86.1512 8.75795 86.3523 7.96492 86.6426 6.91494C86.7543 6.46807 86.9107 6.02129 87.1118 5.57458C87.3129 5.19474 87.4804 5.00482 87.6145 5.00482C87.9718 5.00482 88.2287 5.11654 88.3851 5.33997C88.4968 5.54106 88.6699 6.6469 88.9045 8.65748C89.1392 10.6681 89.3459 12.701 89.5246 14.7563L89.9601 20.3188C89.9601 21.2794 90.0271 22.7315 90.1612 24.6751C90.2952 26.6409 90.3623 28.1042 90.3623 29.0648V29.1989C90.3623 29.4446 90.3287 29.6681 90.2617 29.8692C90.1723 30.0479 89.9601 30.1373 89.6249 30.1373ZM88.2846 23.6698C88.7314 23.6698 88.9549 23.5581 88.9549 23.3347C88.9549 21.9496 88.8767 20.0562 88.7203 17.6547C88.5639 15.2532 88.3963 13.1365 88.2175 11.3047C88.1728 10.5228 88.0835 9.66278 87.9496 8.72451L87.8156 7.41766C87.8156 7.44 87.7932 7.31712 87.7486 7.049L87.6815 6.64682C87.5028 7.13837 87.3297 7.81977 87.1622 8.691C86.9945 9.56223 86.8213 10.5899 86.6426 11.7739C86.1065 15.1024 85.6485 17.6045 85.2687 19.2801L84.9671 20.4194C84.6321 21.5364 84.4646 22.3853 84.4646 22.966V23.1671C85.4475 23.4799 86.5757 23.6363 87.8491 23.6363H88.05C88.117 23.6587 88.1952 23.6698 88.2846 23.6698Z" fill="#272320"/>
<path d="M103.901 30.3384C103.677 30.3384 103.51 30.2546 103.398 30.0869C103.286 29.9194 103.23 29.7128 103.23 29.467V26.4847V23.5023L103.163 18.1408C103.096 15.7504 103.063 13.9632 103.063 12.7792L103.096 11.8075V9.62921C103.096 7.21645 103.074 6.01007 103.029 6.01007H99.2426C99.0639 6.01007 98.9019 5.96546 98.7568 5.87624C98.6116 5.78687 98.5391 5.66398 98.5391 5.50758C98.5391 5.32883 98.5726 5.20594 98.6396 5.13891C98.7066 5.07188 98.8853 5.01602 99.1756 4.97134C99.4884 4.90431 99.9352 4.87079 100.516 4.87079H103.867L107.553 4.83728C107.821 4.83728 108.005 4.88196 108.106 4.97134C108.207 5.06071 108.257 5.20594 108.257 5.40703C108.257 5.74218 108.045 5.90976 107.62 5.90976H106.112H104.638L104.336 5.94304L104.37 7.88667V10.5004V24.1056V26.8868L104.403 29.3665V29.4335C104.403 29.6123 104.392 29.763 104.37 29.8858C104.347 30.0088 104.303 30.1038 104.236 30.1708C104.169 30.2826 104.057 30.3384 103.901 30.3384Z" fill="#272320"/>
<path d="M115.762 30.8409C112.657 30.8409 111.104 25.4682 111.104 14.7227V13.3824C111.104 11.5057 111.216 9.87487 111.44 8.4899C111.574 7.61867 111.758 6.90376 111.993 6.34518C112.227 5.78675 112.546 5.33996 112.948 5.00481C113.327 4.62498 113.819 4.43506 114.422 4.43506C114.958 4.43506 115.45 4.54122 115.896 4.75356C116.343 4.96575 116.712 5.23942 117.002 5.57457C117.248 5.88722 117.471 6.30049 117.672 6.81438C117.874 7.32812 118.03 7.8196 118.142 8.28881L118.41 9.86378C118.946 13.6839 119.214 17.0683 119.214 20.0172V20.1177C119.214 21.2347 119.192 22.2624 119.147 23.2006C119.102 24.3176 118.979 25.4905 118.778 26.7192C118.689 27.3223 118.56 27.8473 118.393 28.2942C118.225 28.7409 118.008 29.1877 117.74 29.6346C117.27 30.4388 116.611 30.8409 115.762 30.8409ZM115.829 29.9027C116.187 29.9027 116.511 29.696 116.801 29.2828C117.092 28.8695 117.315 28.2942 117.471 27.5569C117.829 25.9931 118.052 24.4629 118.142 22.966C118.186 21.7598 118.209 20.587 118.209 19.4476V19.3136L118.175 15.9626C118.131 14.7562 117.996 13.1924 117.773 11.2712C117.594 9.90839 117.226 8.51216 116.667 7.0825C116.444 6.52392 116.148 6.08831 115.779 5.77566C115.411 5.46285 115.014 5.30644 114.59 5.30644C114.21 5.30644 113.875 5.48519 113.584 5.84268C113.294 6.20002 113.059 6.70267 112.881 7.35063C112.479 8.84732 112.255 10.2324 112.21 11.5058C112.143 12.6004 112.11 13.7286 112.11 14.8903V16.5323C112.11 18.029 112.255 19.9279 112.545 22.2289C112.724 23.6809 112.948 24.9431 113.216 26.0154C113.484 27.0877 113.841 27.9926 114.288 28.7299C114.735 29.5117 115.249 29.9027 115.829 29.9027Z" fill="#272320"/>
<path d="M124.341 30.3384C124.073 30.3384 123.939 29.9474 123.939 29.1654C123.939 28.0484 123.927 27.0543 123.905 26.183L123.838 23.1671V20.4529C123.816 19.6487 123.805 18.744 123.805 17.7387C123.805 14.7451 123.749 11.9749 123.637 9.42813L123.603 8.22182C123.536 6.90372 123.503 5.8314 123.503 5.00486L123.603 4.87079C123.626 4.82611 123.67 4.77025 123.738 4.70322C123.76 4.63619 123.816 4.5915 123.905 4.56916C123.95 4.54682 124.028 4.53564 124.14 4.53564C124.922 4.53564 125.631 4.71439 126.268 5.07188C126.904 5.42938 127.424 5.92085 127.826 6.54631C128.608 7.77504 128.999 9.17126 128.999 10.735C128.999 11.7403 128.837 12.7679 128.513 13.8179C128.189 14.8679 127.703 15.8173 127.055 16.6662C126.385 17.5823 125.636 18.1184 124.81 18.2747L124.877 21.9944L124.944 23.8039C125.033 25.9486 125.078 27.7804 125.078 29.2995C125.078 29.6569 125.028 29.9194 124.927 30.0869C124.827 30.2546 124.631 30.3384 124.341 30.3384ZM124.81 17.0348C125.011 17.0125 125.212 16.9231 125.413 16.7667C125.458 16.7444 125.536 16.6551 125.648 16.4988C125.648 16.4988 125.726 16.4206 125.882 16.2642C127.334 14.8121 128.06 12.9913 128.06 10.802C128.06 9.55109 127.815 8.38948 127.323 7.31715C127.055 6.75857 126.664 6.31733 126.15 5.99343C125.636 5.66953 125.033 5.50758 124.341 5.50758C124.341 6.78099 124.408 8.69103 124.542 11.2377C124.676 13.7845 124.743 15.6946 124.743 16.9678L124.81 17.0348Z" fill="#272320"/>
</svg>
